<svg xmlns="http://www.w3.org/2000/svg" xmlns:xlink="http://www.w3.org/1999/xlink" width="1500" zoomAndPan="magnify" viewBox="0 0 1125 374.999991" height="500" preserveAspectRatio="xMidYMid meet" version="1.0"><defs><g/><clipPath id="14f1da2f0d"><rect x="0" width="684" y="0" height="270"/></clipPath><clipPath id="569f54a3af"><path d="M 92 70.613281 L 322 70.613281 L 322 310.613281 L 92 310.613281 Z M 92 70.613281 " clip-rule="nonzero"/></clipPath><clipPath id="5d494a1f68"><path d="M 56.113281 171 L 82 171 L 82 254 L 56.113281 254 Z M 56.113281 171 " clip-rule="nonzero"/></clipPath><clipPath id="450413fb6b"><path d="M 331 170 L 357.613281 170 L 357.613281 254 L 331 254 Z M 331 170 " clip-rule="nonzero"/></clipPath><clipPath id="4908ca5762"><rect x="0" width="309" y="0" height="38"/></clipPath></defs><g transform="matrix(1, 0, 0, 1, 379, 51)"><g clip-path="url(#14f1da2f0d)"><g fill="#000000" fill-opacity="1"><g transform="translate(1.593933, 211.669795)"><g><path d="M 69.546875 3.078125 C 57.078125 3.078125 44.972656 1.539062 33.234375 -1.53125 C 21.492188 -4.613281 11.957031 -8.722656 4.625 -13.859375 L 18.921875 -46 C 25.828125 -41.445312 33.828125 -37.773438 42.921875 -34.984375 C 52.015625 -32.203125 60.96875 -30.8125 69.78125 -30.8125 C 86.5 -30.8125 94.859375 -34.992188 94.859375 -43.359375 C 94.859375 -47.765625 92.472656 -51.03125 87.703125 -53.15625 C 82.941406 -55.28125 75.28125 -57.519531 64.71875 -59.875 C 53.125 -62.363281 43.4375 -65.039062 35.65625 -67.90625 C 27.875 -70.769531 21.195312 -75.351562 15.625 -81.65625 C 10.050781 -87.96875 7.265625 -96.476562 7.265625 -107.1875 C 7.265625 -116.582031 9.832031 -125.054688 14.96875 -132.609375 C 20.101562 -140.171875 27.769531 -146.148438 37.96875 -150.546875 C 48.164062 -154.953125 60.675781 -157.15625 75.5 -157.15625 C 85.625 -157.15625 95.601562 -156.015625 105.4375 -153.734375 C 115.269531 -151.460938 123.925781 -148.128906 131.40625 -143.734375 L 117.984375 -111.375 C 103.304688 -119.300781 89.070312 -123.265625 75.28125 -123.265625 C 66.625 -123.265625 60.3125 -121.976562 56.34375 -119.40625 C 52.382812 -116.84375 50.40625 -113.503906 50.40625 -109.390625 C 50.40625 -105.285156 52.75 -102.203125 57.4375 -100.140625 C 62.132812 -98.085938 69.695312 -95.960938 80.125 -93.765625 C 91.863281 -91.273438 101.582031 -88.597656 109.28125 -85.734375 C 116.988281 -82.867188 123.664062 -78.316406 129.3125 -72.078125 C 134.957031 -65.847656 137.78125 -57.375 137.78125 -46.65625 C 137.78125 -37.414062 135.210938 -29.050781 130.078125 -21.5625 C 124.941406 -14.082031 117.238281 -8.101562 106.96875 -3.625 C 96.695312 0.84375 84.222656 3.078125 69.546875 3.078125 Z M 69.546875 3.078125 "/></g></g></g><g fill="#000000" fill-opacity="1"><g transform="translate(125.941195, 211.669795)"><g><path d="M 13.421875 -119.296875 L 55.25 -119.296875 L 55.25 0 L 13.421875 0 Z M 34.34375 -132.5 C 26.707031 -132.5 20.539062 -134.625 15.84375 -138.875 C 11.15625 -143.132812 8.8125 -148.421875 8.8125 -154.734375 C 8.8125 -161.046875 11.15625 -166.328125 15.84375 -170.578125 C 20.539062 -174.835938 26.707031 -176.96875 34.34375 -176.96875 C 41.96875 -176.96875 48.128906 -174.945312 52.828125 -170.90625 C 57.523438 -166.875 59.875 -161.703125 59.875 -155.390625 C 59.875 -148.796875 57.523438 -143.332031 52.828125 -139 C 48.128906 -134.664062 41.96875 -132.5 34.34375 -132.5 Z M 34.34375 -132.5 "/></g></g></g><g fill="#000000" fill-opacity="1"><g transform="translate(176.779023, 211.669795)"><g><path d="M 91.125 -121.28125 C 105.945312 -121.28125 117.867188 -116.875 126.890625 -108.0625 C 135.921875 -99.257812 140.4375 -85.984375 140.4375 -68.234375 L 140.4375 0 L 98.609375 0 L 98.609375 -61.40625 C 98.609375 -77.695312 92.078125 -85.84375 79.015625 -85.84375 C 71.828125 -85.84375 66.066406 -83.492188 61.734375 -78.796875 C 57.410156 -74.097656 55.25 -67.054688 55.25 -57.671875 L 55.25 0 L 13.421875 0 L 13.421875 -119.296875 L 53.265625 -119.296875 L 53.265625 -106.3125 C 57.960938 -111.15625 63.535156 -114.859375 69.984375 -117.421875 C 76.441406 -119.992188 83.488281 -121.28125 91.125 -121.28125 Z M 91.125 -121.28125 "/></g></g></g><g fill="#000000" fill-opacity="1"><g transform="translate(311.910645, 211.669795)"><g><path d="M 133.828125 -80.34375 C 142.628906 -77.257812 149.523438 -72.453125 154.515625 -65.921875 C 159.503906 -59.390625 162 -51.503906 162 -42.265625 C 162 -28.765625 156.566406 -18.34375 145.703125 -11 C 134.847656 -3.664062 119.148438 0 98.609375 0 L 15.40625 0 L 15.40625 -154.078125 L 94.203125 -154.078125 C 113.867188 -154.078125 128.835938 -150.441406 139.109375 -143.171875 C 149.378906 -135.910156 154.515625 -126.117188 154.515625 -113.796875 C 154.515625 -106.460938 152.71875 -99.894531 149.125 -94.09375 C 145.53125 -88.300781 140.429688 -83.71875 133.828125 -80.34375 Z M 58.546875 -122.59375 L 58.546875 -92.890625 L 88.484375 -92.890625 C 103.160156 -92.890625 110.5 -97.878906 110.5 -107.859375 C 110.5 -117.679688 103.160156 -122.59375 88.484375 -122.59375 Z M 95.09375 -31.46875 C 110.351562 -31.46875 117.984375 -36.679688 117.984375 -47.109375 C 117.984375 -57.523438 110.351562 -62.734375 95.09375 -62.734375 L 58.546875 -62.734375 L 58.546875 -31.46875 Z M 95.09375 -31.46875 "/></g></g></g><g fill="#000000" fill-opacity="1"><g transform="translate(463.108697, 211.669795)"><g><path d="M 64.265625 -121.28125 C 84.078125 -121.28125 99.191406 -116.765625 109.609375 -107.734375 C 120.035156 -98.710938 125.25 -84.882812 125.25 -66.25 L 125.25 0 L 86.28125 0 L 86.28125 -15.40625 C 80.269531 -3.8125 68.53125 1.984375 51.0625 1.984375 C 41.820312 1.984375 33.828125 0.367188 27.078125 -2.859375 C 20.328125 -6.085938 15.226562 -10.453125 11.78125 -15.953125 C 8.332031 -21.460938 6.609375 -27.738281 6.609375 -34.78125 C 6.609375 -46.070312 10.9375 -54.835938 19.59375 -61.078125 C 28.25 -67.316406 41.601562 -70.4375 59.65625 -70.4375 L 83.421875 -70.4375 C 82.691406 -83.050781 74.253906 -89.359375 58.109375 -89.359375 C 52.390625 -89.359375 46.59375 -88.441406 40.71875 -86.609375 C 34.851562 -84.773438 29.863281 -82.242188 25.75 -79.015625 L 11.671875 -107.40625 C 18.273438 -111.8125 26.304688 -115.222656 35.765625 -117.640625 C 45.234375 -120.066406 54.734375 -121.28125 64.265625 -121.28125 Z M 62.734375 -24.4375 C 67.578125 -24.4375 71.832031 -25.609375 75.5 -27.953125 C 79.164062 -30.296875 81.804688 -33.742188 83.421875 -38.296875 L 83.421875 -48.640625 L 65.375 -48.640625 C 53.195312 -48.640625 47.109375 -44.601562 47.109375 -36.53125 C 47.109375 -32.863281 48.5 -29.929688 51.28125 -27.734375 C 54.070312 -25.535156 57.890625 -24.4375 62.734375 -24.4375 Z M 62.734375 -24.4375 "/></g></g></g><g fill="#000000" fill-opacity="1"><g transform="translate(583.274306, 211.669795)"><g><path d="M 53.265625 -105 C 57.523438 -110.425781 63.066406 -114.492188 69.890625 -117.203125 C 76.710938 -119.921875 84.523438 -121.28125 93.328125 -121.28125 L 93.328125 -83.640625 C 89.515625 -84.078125 86.359375 -84.296875 83.859375 -84.296875 C 74.910156 -84.296875 67.90625 -81.875 62.84375 -77.03125 C 57.78125 -72.195312 55.25 -64.789062 55.25 -54.8125 L 55.25 0 L 13.421875 0 L 13.421875 -119.296875 L 53.265625 -119.296875 Z M 53.265625 -105 "/></g></g></g></g></g><g clip-path="url(#569f54a3af)"><path fill="#000000" d="M 270.539062 310.597656 L 143.015625 310.597656 C 114.929688 310.597656 92.144531 287.820312 92.144531 259.921875 L 92.144531 177.285156 C 92.144531 149.207031 114.929688 126.429688 143.015625 126.429688 L 201.300781 126.429688 L 201.476562 107.007812 C 193.882812 104.710938 188.230469 97.648438 188.230469 89.171875 C 188.230469 78.929688 196.707031 70.632812 206.953125 70.632812 C 217.195312 70.632812 225.675781 78.929688 225.675781 89.171875 C 225.675781 97.648438 219.847656 104.886719 212.074219 107.183594 L 211.898438 126.429688 L 270.539062 126.429688 C 298.445312 126.429688 321.230469 149.207031 321.230469 177.285156 L 321.230469 260.097656 C 321.230469 287.996094 298.445312 310.597656 270.539062 310.597656 Z M 158.910156 230.433594 C 143.898438 230.433594 132.0625 218.601562 132.0625 203.769531 C 132.0625 188.761719 143.898438 176.929688 158.910156 176.929688 C 173.921875 176.929688 185.582031 188.761719 185.582031 203.769531 C 185.582031 218.601562 173.921875 230.433594 158.910156 230.433594 Z M 158.910156 187.523438 C 149.726562 187.523438 142.660156 194.585938 142.660156 203.769531 C 142.660156 212.773438 149.726562 219.839844 158.910156 219.839844 C 167.917969 219.839844 175.160156 212.773438 175.160156 203.769531 C 175.160156 194.585938 167.917969 187.523438 158.910156 187.523438 Z M 254.816406 229.375 C 239.804688 229.375 227.792969 217.367188 227.792969 202.535156 C 227.792969 187.703125 239.804688 175.695312 254.816406 175.695312 C 269.476562 175.695312 281.488281 187.703125 281.488281 202.535156 C 281.488281 217.367188 269.476562 229.375 254.816406 229.375 Z M 254.816406 186.289062 C 245.632812 186.289062 238.390625 193.703125 238.390625 202.535156 C 238.390625 211.539062 245.632812 218.957031 254.816406 218.957031 C 263.824219 218.957031 270.890625 211.539062 270.890625 202.535156 C 270.890625 193.351562 263.648438 186.289062 254.816406 186.289062 Z M 204.832031 261.511719 C 194.765625 261.511719 185.933594 256.742188 180.988281 252.503906 C 178.691406 250.5625 178.515625 247.03125 180.457031 245.089844 C 182.402344 242.96875 185.582031 242.617188 187.875 244.734375 C 189.464844 246.148438 204.832031 258.332031 219.492188 244.910156 C 221.613281 242.96875 224.792969 242.96875 227.085938 245.089844 C 229.03125 247.382812 229.03125 250.5625 226.910156 252.679688 C 219.492188 259.039062 211.898438 261.511719 204.832031 261.511719 Z M 204.832031 261.511719 " fill-opacity="1" fill-rule="evenodd"/></g><g clip-path="url(#5d494a1f68)"><path fill="#000000" d="M 81.546875 253.917969 L 79.429688 253.917969 C 66.710938 253.917969 56.113281 243.5 56.113281 230.609375 L 56.113281 194.585938 C 56.113281 181.699219 66.710938 171.101562 79.429688 171.101562 L 81.902344 171.101562 C 81.726562 173.046875 81.546875 175.164062 81.546875 177.285156 Z M 81.546875 253.917969 " fill-opacity="1" fill-rule="evenodd"/></g><g clip-path="url(#450413fb6b)"><path fill="#000000" d="M 333.945312 253.917969 L 331.828125 253.917969 L 331.828125 177.285156 C 331.828125 174.988281 331.648438 172.867188 331.472656 170.925781 L 333.945312 170.925781 C 347.015625 170.925781 357.613281 181.34375 357.613281 194.410156 L 357.613281 230.609375 C 357.613281 243.675781 347.015625 253.917969 333.945312 253.917969 Z M 333.945312 253.917969 " fill-opacity="1" fill-rule="evenodd"/></g><g transform="matrix(1, 0, 0, 1, 777, 281)"><g clip-path="url(#4908ca5762)"><g fill="#0a2635" fill-opacity="1"><g transform="translate(1.257248, 29.69705)"><g><path d="M 16.734375 -10.859375 L 21.1875 -10.859375 L 21.1875 -2.3125 C 20.039062 -1.445312 18.710938 -0.785156 17.203125 -0.328125 C 15.703125 0.128906 14.191406 0.359375 12.671875 0.359375 C 10.484375 0.359375 8.515625 -0.101562 6.765625 -1.03125 C 5.023438 -1.96875 3.65625 -3.265625 2.65625 -4.921875 C 1.664062 -6.578125 1.171875 -8.445312 1.171875 -10.53125 C 1.171875 -12.613281 1.664062 -14.484375 2.65625 -16.140625 C 3.65625 -17.796875 5.035156 -19.085938 6.796875 -20.015625 C 8.566406 -20.953125 10.554688 -21.421875 12.765625 -21.421875 C 14.609375 -21.421875 16.28125 -21.109375 17.78125 -20.484375 C 19.289062 -19.867188 20.554688 -18.96875 21.578125 -17.78125 L 18.453125 -14.890625 C 16.941406 -16.484375 15.125 -17.28125 13 -17.28125 C 11.65625 -17.28125 10.460938 -17 9.421875 -16.4375 C 8.378906 -15.875 7.566406 -15.078125 6.984375 -14.046875 C 6.398438 -13.023438 6.109375 -11.851562 6.109375 -10.53125 C 6.109375 -9.226562 6.398438 -8.0625 6.984375 -7.03125 C 7.566406 -6.007812 8.375 -5.210938 9.40625 -4.640625 C 10.4375 -4.078125 11.613281 -3.796875 12.9375 -3.796875 C 14.34375 -3.796875 15.609375 -4.09375 16.734375 -4.6875 Z M 16.734375 -10.859375 "/></g></g></g><g fill="#0a2635" fill-opacity="1"><g transform="translate(48.538345, 29.69705)"><g><path d="M 15.921875 0 L 11.859375 -5.875 L 7.375 -5.875 L 7.375 0 L 2.5 0 L 2.5 -21.0625 L 11.609375 -21.0625 C 13.484375 -21.0625 15.101562 -20.75 16.46875 -20.125 C 17.84375 -19.507812 18.898438 -18.628906 19.640625 -17.484375 C 20.390625 -16.335938 20.765625 -14.984375 20.765625 -13.421875 C 20.765625 -11.859375 20.382812 -10.507812 19.625 -9.375 C 18.875 -8.238281 17.8125 -7.367188 16.4375 -6.765625 L 21.15625 0 Z M 15.828125 -13.421875 C 15.828125 -14.609375 15.445312 -15.515625 14.6875 -16.140625 C 13.925781 -16.773438 12.8125 -17.09375 11.34375 -17.09375 L 7.375 -17.09375 L 7.375 -9.75 L 11.34375 -9.75 C 12.8125 -9.75 13.925781 -10.066406 14.6875 -10.703125 C 15.445312 -11.347656 15.828125 -12.253906 15.828125 -13.421875 Z M 15.828125 -13.421875 "/></g></g></g><g fill="#0a2635" fill-opacity="1"><g transform="translate(94.736283, 29.69705)"><g><path d="M 16.375 -4.515625 L 6.59375 -4.515625 L 4.71875 0 L -0.265625 0 L 9.125 -21.0625 L 13.9375 -21.0625 L 23.359375 0 L 18.234375 0 Z M 14.84375 -8.21875 L 11.5 -16.28125 L 8.15625 -8.21875 Z M 14.84375 -8.21875 "/></g></g></g><g fill="#0a2635" fill-opacity="1"><g transform="translate(141.866947, 29.69705)"><g><path d="M 7.375 -17.15625 L 7.375 -11.59375 L 17.125 -11.59375 L 17.125 -7.671875 L 7.375 -7.671875 L 7.375 0 L 2.5 0 L 2.5 -21.0625 L 18.421875 -21.0625 L 18.421875 -17.15625 Z M 7.375 -17.15625 "/></g></g></g><g fill="#0a2635" fill-opacity="1"><g transform="translate(185.176479, 29.69705)"><g><path d="M 6.859375 -17.09375 L 0.125 -17.09375 L 0.125 -21.0625 L 18.484375 -21.0625 L 18.484375 -17.09375 L 11.734375 -17.09375 L 11.734375 0 L 6.859375 0 Z M 6.859375 -17.09375 "/></g></g></g><g fill="#0a2635" fill-opacity="1"><g transform="translate(227.854165, 29.69705)"><g><path d="M 2.5 -21.0625 L 7.375 -21.0625 L 7.375 0 L 2.5 0 Z M 2.5 -21.0625 "/></g></g></g><g fill="#0a2635" fill-opacity="1"><g transform="translate(261.80643, 29.69705)"><g><path d="M 10.171875 -8.28125 L 7.34375 -5.328125 L 7.34375 0 L 2.5 0 L 2.5 -21.0625 L 7.34375 -21.0625 L 7.34375 -11.21875 L 16.671875 -21.0625 L 22.09375 -21.0625 L 13.359375 -11.671875 L 22.59375 0 L 16.90625 0 Z M 10.171875 -8.28125 "/></g></g></g></g></g></svg>